<?xml version="1.0" encoding="UTF-8" standalone="no"?>
<svg width="391px" height="124px" viewBox="0 0 391 124" version="1.1" xmlns="http://www.w3.org/2000/svg" xmlns:xlink="http://www.w3.org/1999/xlink" xmlns:sketch="http://www.bohemiancoding.com/sketch/ns">
    <!-- Generator: Sketch 3.4.4 (17249) - http://www.bohemiancoding.com/sketch -->
    <title>Untitled</title>
    <desc>Created with Sketch.</desc>
    <defs></defs>
    <g id="Page-1" stroke="none" stroke-width="1" fill="none" fill-rule="evenodd" sketch:type="MSPage">
        <g id="Algolia_logo_bg-dark" sketch:type="MSLayerGroup" fill="#FFFFFF">
            <g id="Page-1" sketch:type="MSShapeGroup">
                <g id="Algolia_logo_bg-dark">
                    <path d="M234.999304,48.1378108 L229.907729,66.1801002 L246.305801,57.1928059 C243.924304,52.826098 239.860592,49.5242687 234.999304,48.1378108 L234.999304,48.1378108 Z" id="Fill-1"></path>
                    <path d="M203.455755,33.4002509 C201.002399,30.9359747 197.022371,30.9375523 194.569015,33.4002509 L193.458566,34.5156436 C191.00521,36.9783421 191.006781,40.976086 193.458566,43.4403623 L194.641265,44.6267488 C197.159018,40.5690545 200.364715,36.987808 204.090297,34.0391958 L203.455755,33.4002509 L203.455755,33.4002509 Z" id="Fill-2"></path>
                    <path d="M241.840877,27.223784 C241.850301,27.0881068 241.880143,26.9587402 241.880143,26.8199077 L241.880143,23.6646244 C241.878572,20.1811917 239.067108,17.3556356 235.597542,17.3540579 L224.601419,17.3540579 C221.133424,17.3556356 218.320389,20.1796141 218.320389,23.6646244 L218.320389,26.7646902 C221.821368,25.7802419 225.504543,25.2422661 229.314941,25.2422661 C233.682919,25.2422661 237.890691,25.9427389 241.840877,27.223784" id="Fill-3"></path>
                    <path d="M229.760635,41.5528326 C243.54501,41.5528326 254.760635,52.7684576 254.760635,66.5528326 C254.760635,80.3372076 243.54501,91.5528326 229.760635,91.5528326 C215.97626,91.5528326 204.760635,80.3372076 204.760635,66.5528326 C204.760635,52.7684576 215.97626,41.5528326 229.760635,41.5528326 L229.760635,41.5528326 Z M194.760635,66.5528326 C194.760635,85.8807871 210.427907,101.552833 229.760635,101.552833 C249.093362,101.552833 264.760635,85.8807871 264.760635,66.5528326 C264.760635,47.224878 249.093362,31.5528326 229.760635,31.5528326 C210.427907,31.5528326 194.760635,47.224878 194.760635,66.5528326 L194.760635,66.5528326 Z" id="Fill-4"></path>
                    <path d="M69.5829487,99.6564664 C68.1395211,95.8212196 66.7840499,92.0522338 65.5118232,88.3463536 C64.2395965,84.6404734 62.9233915,80.8699099 61.5679203,77.0362407 L21.6200011,77.0362407 L13.6049727,99.6564664 L0.755482785,99.6564664 C4.14651674,90.2852752 7.32708356,81.617712 10.2971832,73.6506218 C13.2657123,65.6851092 16.168274,58.1234729 19.0127216,50.9688681 C21.8524573,43.811108 24.6733452,36.9751869 27.472244,30.4579493 C30.2711428,23.9407117 33.1972643,17.4881575 36.2506085,11.0987089 L47.5734263,11.0987089 C50.6267705,17.4881575 53.5528919,23.9407117 56.3517907,30.4579493 C59.1506895,36.9751869 61.9700068,43.811108 64.8128838,50.9688681 C67.6526195,58.1234729 70.5567519,65.6851092 73.5268516,73.6506218 C76.4953806,81.617712 79.6759474,90.2852752 83.068552,99.6564664 L69.5829487,99.6564664 L69.5829487,99.6564664 L69.5829487,99.6564664 Z M58.0056855,66.8147006 C55.2900312,59.4013626 52.5979366,52.2262485 49.9278311,45.28147 C47.2545843,38.3382692 44.476104,31.6727333 41.5939607,25.2817071 C38.623861,31.6727333 35.8045438,38.3382692 33.1344383,45.28147 C30.4627622,52.2262485 27.8099339,59.4013626 25.1822359,66.8147006 L58.0056855,66.8147006 L58.0056855,66.8147006 L58.0056855,66.8147006 Z" id="Fill-5"></path>
                    <path d="M114.109313,100.932779 C106.815214,100.762393 101.643062,99.1879069 98.5897181,96.2045865 C95.5348033,93.2244215 94.0112725,88.5814222 94.0112725,82.2755886 L94.0112725,2.5352701 L105.83984,0.490646547 L105.83984,80.358754 C105.83984,82.3213402 106.011041,83.9384229 106.34873,85.2163126 C106.689562,86.4926247 107.24086,87.5165141 108.002625,88.2832479 C108.765961,89.0484041 109.785313,89.6242433 111.05754,90.0076102 C112.331337,90.3909771 113.898846,90.7112384 115.763208,90.9668163 L114.109313,100.932779" id="Fill-6"></path>
                    <path d="M170.468957,93.0098622 C169.452747,93.6945587 167.48001,94.5654169 164.553889,95.630325 C161.627767,96.6952331 158.213173,97.228476 154.311678,97.228476 C150.325368,97.228476 146.571513,96.5879535 143.053257,95.3116414 C139.53343,94.032174 136.458096,92.0522338 133.828828,89.3686654 C131.199559,86.6835193 129.121589,83.3420743 127.594917,79.3380199 C126.069815,75.3339654 125.304909,70.5631771 125.304909,65.025655 C125.304909,60.1696741 126.024267,55.7175694 127.467694,51.6709186 C128.909551,47.6258455 131.00794,44.1313693 133.766002,41.1922229 C136.520922,38.2530766 139.891538,35.9528751 143.879419,34.2916185 C147.865729,32.6303618 152.36093,31.7989447 157.365022,31.7989447 C162.878005,31.7989447 167.690477,32.2059762 171.805581,33.0137287 C175.919114,33.8246365 179.374545,34.5692834 182.173443,35.2492469 L182.173443,94.5449075 C182.173443,104.768025 179.545745,112.178208 174.287208,116.778611 C169.02553,121.379014 161.05448,123.677638 150.367775,123.677638 C146.211835,123.677638 142.289921,123.340023 138.600463,122.658481 C134.911006,121.973785 131.70845,121.16761 128.995937,120.230491 L131.158722,109.879584 C133.531975,110.813548 136.437678,111.646543 139.87269,112.37068 C143.307702,113.09324 146.890355,113.457675 150.622221,113.457675 C157.661875,113.457675 162.728793,112.051997 165.826115,109.239062 C168.921867,106.429282 170.468957,101.95509 170.468957,95.8212196 L170.468957,93.0098622 L170.468957,93.0098622 L170.468957,93.0098622 Z M165.57167,42.7256906 C163.576944,42.429094 160.884849,42.2776404 157.493816,42.2776404 C151.132682,42.2776404 146.233824,44.3680155 142.798812,48.5408776 C139.363799,52.7153174 137.647079,58.2512619 137.647079,65.1518664 C137.647079,68.9871132 138.13241,72.2670301 139.109354,74.9931948 C140.084728,77.7209372 141.399362,79.9753871 143.053257,81.7660104 C144.707152,83.5534783 146.615492,84.875542 148.778277,85.7258908 C150.941063,86.579395 153.168245,87.0037806 155.458253,87.0037806 C158.594841,87.0037806 161.478555,86.557308 164.107824,85.6627852 C166.735522,84.7666847 168.815063,83.7254413 170.341735,82.5327442 L170.341735,43.6848967 C169.152753,43.3441261 167.564825,43.0254425 165.57167,42.7256906 L165.57167,42.7256906 Z" id="Fill-7"></path>
                    <path d="M297.035098,100.934356 C289.739428,100.762393 284.567276,99.1894845 281.513932,96.2061642 C278.460588,93.2259991 276.933916,88.5814222 276.933916,82.2771662 L276.933916,2.53684774 L288.767195,0.492224188 L288.767195,80.358754 C288.767195,82.3213402 288.935255,83.9384229 289.274515,85.2163126 C289.613776,86.4942023 290.165074,87.5165141 290.929981,88.2832479 C291.691746,89.0499818 292.707957,89.6258209 293.981754,90.0091879 C295.253981,90.3925548 296.82149,90.7112384 298.688993,90.9668163 L297.035098,100.934356" id="Fill-8"></path>
                    <path d="M317.770823,21.1940376 C315.652016,21.1940376 313.847339,20.4904095 312.366216,19.0863084 C310.880381,17.6790521 310.139034,15.7858821 310.139034,13.3989104 C310.139034,11.0135162 310.880381,9.11719097 312.366216,7.71308992 C313.847339,6.30583359 315.652016,5.60378307 317.770823,5.60378307 C319.891201,5.60378307 321.694308,6.30583359 323.180143,7.71308992 C324.661266,9.11719097 325.405754,11.0135162 325.405754,13.3989104 C325.405754,15.7858821 324.661266,17.6790521 323.180143,19.0863084 C321.694308,20.4904095 319.891201,21.1940376 317.770823,21.1940376 L317.770823,21.1940376 L317.770823,21.1940376 Z M311.920151,33.206201 L323.75186,33.206201 L323.75186,99.6564664 L311.920151,99.6564664 L311.920151,33.206201 L311.920151,33.206201 Z" id="Fill-9"></path>
                    <path d="M365.479326,31.5449444 C370.228972,31.5449444 374.235701,32.1649575 377.502653,33.3986733 C380.766465,34.6339667 383.395733,36.380416 385.388889,38.6364435 C387.382044,40.8956263 388.803482,43.5791947 389.651633,46.6887264 C390.498214,49.798258 390.92386,53.2264733 390.92386,56.9749498 L390.92386,98.5079433 C389.906079,98.6783286 388.48464,98.9118196 386.662686,99.2099938 C384.83759,99.5081681 382.781609,99.7842554 380.491601,100.039833 C378.201593,100.295411 375.719965,100.528902 373.04986,100.741884 C370.376613,100.953288 367.725355,101.062145 365.097658,101.062145 C361.364222,101.062145 357.93078,100.678778 354.792621,99.9120444 C351.654462,99.1453105 348.940378,97.9305265 346.65037,96.2708475 C344.360362,94.6095909 342.579245,92.416669 341.307018,89.6889266 C340.034791,86.9627619 339.398678,83.6828449 339.398678,79.8491758 C339.398678,76.1874696 340.140025,73.0337639 341.62586,70.3927918 C343.106983,67.7533974 345.122127,65.6235812 347.668151,64.0033433 C350.212605,62.3862606 353.181134,61.1919859 356.573739,60.425252 C359.964772,59.6585182 363.527007,59.2751513 367.260443,59.2751513 C368.446284,59.2751513 369.677674,59.338257 370.949901,59.4660459 C372.222127,59.5938349 373.431528,59.7673755 374.574961,59.9787795 C375.719965,60.1917611 376.717328,60.3826557 377.56705,60.553041 C378.413631,60.7250039 379.007336,60.8527929 379.346597,60.9364079 L379.346597,57.6138947 C379.346597,55.6544637 379.134559,53.7171198 378.710484,51.7987076 C378.284837,49.881873 377.521501,48.1795977 376.420475,46.6887264 C375.317879,45.197855 373.811625,44.005158 371.903285,43.1090575 C369.994945,42.2161124 367.513318,41.7680621 364.461544,41.7680621 C360.558478,41.7680621 357.147026,42.0457271 354.219334,42.5994793 C351.294783,43.1532315 349.110008,43.7290707 347.668151,44.3238416 L346.268702,34.4840907 C347.795374,33.8041272 350.341398,33.1430953 353.902062,32.5041505 C357.464297,31.863628 361.323385,31.5449444 365.479326,31.5449444 L365.479326,31.5449444 L365.479326,31.5449444 Z M366.497107,91.0946053 C369.296006,91.0946053 371.777633,91.029922 373.940419,90.902133 C376.103204,90.7743441 377.90474,90.5424307 379.346597,90.2000825 L379.346597,70.3927918 C378.496875,69.9684063 377.119415,69.6055487 375.212645,69.3073744 C373.302735,69.0092001 370.992308,68.8577465 368.278224,68.8577465 C366.497107,68.8577465 364.609185,68.9871132 362.617601,69.2426911 C360.624446,69.498269 358.79935,70.0315119 357.147026,70.8392644 C355.49156,71.6501722 354.11253,72.756099 353.011504,74.1633553 C351.908907,75.5674564 351.357609,77.4211853 351.357609,79.7213868 C351.357609,83.9810192 352.71308,86.9406749 355.428734,88.6019315 C358.142818,90.2647658 361.832276,91.0946053 366.497107,91.0946053 L366.497107,91.0946053 L366.497107,91.0946053 Z" id="Fill-10"></path>
                </g>
            </g>
        </g>
    </g>
</svg>